<svg width="1320" height="277" viewBox="0 0 1320 277" fill="none" xmlns="http://www.w3.org/2000/svg">
<g filter="url(#filter0_f_55_2)">
<path d="M4 3C4 3.55225 3.55228 4 3 4C2.44772 4 2 3.55225 2 3C2 2.44775 2.44772 2 3 2C3.55228 2 4 2.44775 4 3Z" fill="#7F7FA0"/>
<path d="M4 48C4 48.5522 3.55228 49 3 49C2.44772 49 2 48.5522 2 48C2 47.4478 2.44772 47 3 47C3.55228 47 4 47.4478 4 48Z" fill="#7F7FA0"/>
<path d="M4 93C4 93.5522 3.55228 94 3 94C2.44772 94 2 93.5522 2 93C2 92.4478 2.44772 92 3 92C3.55228 92 4 92.4478 4 93Z" fill="#7F7FA0"/>
<path d="M4 138C4 138.552 3.55228 139 3 139C2.44772 139 2 138.552 2 138C2 137.448 2.44772 137 3 137C3.55228 137 4 137.448 4 138Z" fill="#7F7FA0"/>
<path d="M4 18C4 18.5522 3.55228 19 3 19C2.44772 19 2 18.5522 2 18C2 17.4478 2.44772 17 3 17C3.55228 17 4 17.4478 4 18Z" fill="#7F7FA0"/>
<path d="M4 63C4 63.5522 3.55228 64 3 64C2.44772 64 2 63.5522 2 63C2 62.4478 2.44772 62 3 62C3.55228 62 4 62.4478 4 63Z" fill="#7F7FA0"/>
<path d="M4 108C4 108.552 3.55228 109 3 109C2.44772 109 2 108.552 2 108C2 107.448 2.44772 107 3 107C3.55228 107 4 107.448 4 108Z" fill="#7F7FA0"/>
<path d="M4 153C4 153.552 3.55228 154 3 154C2.44772 154 2 153.552 2 153C2 152.448 2.44772 152 3 152C3.55228 152 4 152.448 4 153Z" fill="#7F7FA0"/>
<path d="M4 33C4 33.5522 3.55228 34 3 34C2.44772 34 2 33.5522 2 33C2 32.4478 2.44772 32 3 32C3.55228 32 4 32.4478 4 33Z" fill="#7F7FA0"/>
<path d="M4 78C4 78.5522 3.55228 79 3 79C2.44772 79 2 78.5522 2 78C2 77.4478 2.44772 77 3 77C3.55228 77 4 77.4478 4 78Z" fill="#7F7FA0"/>
<path d="M4 123C4 123.552 3.55228 124 3 124C2.44772 124 2 123.552 2 123C2 122.448 2.44772 122 3 122C3.55228 122 4 122.448 4 123Z" fill="#7F7FA0"/>
<path d="M19 3C19 3.55225 18.5523 4 18 4C17.4477 4 17 3.55225 17 3C17 2.44775 17.4477 2 18 2C18.5523 2 19 2.44775 19 3Z" fill="#7F7FA0"/>
<path d="M19 48C19 48.5522 18.5523 49 18 49C17.4477 49 17 48.5522 17 48C17 47.4478 17.4477 47 18 47C18.5523 47 19 47.4478 19 48Z" fill="#7F7FA0"/>
<path d="M19 93C19 93.5522 18.5523 94 18 94C17.4477 94 17 93.5522 17 93C17 92.4478 17.4477 92 18 92C18.5523 92 19 92.4478 19 93Z" fill="#7F7FA0"/>
<path d="M19 138C19 138.552 18.5523 139 18 139C17.4477 139 17 138.552 17 138C17 137.448 17.4477 137 18 137C18.5523 137 19 137.448 19 138Z" fill="#7F7FA0"/>
<path d="M19 18C19 18.5522 18.5523 19 18 19C17.4477 19 17 18.5522 17 18C17 17.4478 17.4477 17 18 17C18.5523 17 19 17.4478 19 18Z" fill="#7F7FA0"/>
<path d="M19 63C19 63.5522 18.5523 64 18 64C17.4477 64 17 63.5522 17 63C17 62.4478 17.4477 62 18 62C18.5523 62 19 62.4478 19 63Z" fill="#7F7FA0"/>
<path d="M19 108C19 108.552 18.5523 109 18 109C17.4477 109 17 108.552 17 108C17 107.448 17.4477 107 18 107C18.5523 107 19 107.448 19 108Z" fill="#7F7FA0"/>
<path d="M19 153C19 153.552 18.5523 154 18 154C17.4477 154 17 153.552 17 153C17 152.448 17.4477 152 18 152C18.5523 152 19 152.448 19 153Z" fill="#7F7FA0"/>
<path d="M19 33C19 33.5522 18.5523 34 18 34C17.4477 34 17 33.5522 17 33C17 32.4478 17.4477 32 18 32C18.5523 32 19 32.4478 19 33Z" fill="#7F7FA0"/>
<path d="M19 78C19 78.5522 18.5523 79 18 79C17.4477 79 17 78.5522 17 78C17 77.4478 17.4477 77 18 77C18.5523 77 19 77.4478 19 78Z" fill="#7F7FA0"/>
<path d="M19 123C19 123.552 18.5523 124 18 124C17.4477 124 17 123.552 17 123C17 122.448 17.4477 122 18 122C18.5523 122 19 122.448 19 123Z" fill="#7F7FA0"/>
<path d="M33 4C33.5523 4 34 3.55225 34 3C34 2.44775 33.5523 2 33 2C32.4477 2 32 2.44775 32 3C32 3.55225 32.4477 4 33 4Z" fill="#7F7FA0"/>
<path d="M33 49C33.5523 49 34 48.5522 34 48C34 47.4478 33.5523 47 33 47C32.4477 47 32 47.4478 32 48C32 48.5522 32.4477 49 33 49Z" fill="#7F7FA0"/>
<path d="M33 94C33.5523 94 34 93.5522 34 93C34 92.4478 33.5523 92 33 92C32.4477 92 32 92.4478 32 93C32 93.5522 32.4477 94 33 94Z" fill="#7F7FA0"/>
<path d="M33 139C33.5523 139 34 138.552 34 138C34 137.448 33.5523 137 33 137C32.4477 137 32 137.448 32 138C32 138.552 32.4477 139 33 139Z" fill="#7F7FA0"/>
<path d="M33 19C33.5523 19 34 18.5522 34 18C34 17.4478 33.5523 17 33 17C32.4477 17 32 17.4478 32 18C32 18.5522 32.4477 19 33 19Z" fill="#7F7FA0"/>
<path d="M33 64C33.5523 64 34 63.5522 34 63C34 62.4478 33.5523 62 33 62C32.4477 62 32 62.4478 32 63C32 63.5522 32.4477 64 33 64Z" fill="#7F7FA0"/>
<path d="M33 109C33.5523 109 34 108.552 34 108C34 107.448 33.5523 107 33 107C32.4477 107 32 107.448 32 108C32 108.552 32.4477 109 33 109Z" fill="#7F7FA0"/>
<path d="M33 154C33.5523 154 34 153.552 34 153C34 152.448 33.5523 152 33 152C32.4477 152 32 152.448 32 153C32 153.552 32.4477 154 33 154Z" fill="#7F7FA0"/>
<path d="M33 34C33.5523 34 34 33.5522 34 33C34 32.4478 33.5523 32 33 32C32.4477 32 32 32.4478 32 33C32 33.5522 32.4477 34 33 34Z" fill="#7F7FA0"/>
<path d="M33 79C33.5523 79 34 78.5522 34 78C34 77.4478 33.5523 77 33 77C32.4477 77 32 77.4478 32 78C32 78.5522 32.4477 79 33 79Z" fill="#7F7FA0"/>
<path d="M33 124C33.5523 124 34 123.552 34 123C34 122.448 33.5523 122 33 122C32.4477 122 32 122.448 32 123C32 123.552 32.4477 124 33 124Z" fill="#7F7FA0"/>
<path d="M49 3C49 3.55225 48.5523 4 48 4C47.4477 4 47 3.55225 47 3C47 2.44775 47.4477 2 48 2C48.5523 2 49 2.44775 49 3Z" fill="#7F7FA0"/>
<path d="M49 48C49 48.5522 48.5523 49 48 49C47.4477 49 47 48.5522 47 48C47 47.4478 47.4477 47 48 47C48.5523 47 49 47.4478 49 48Z" fill="#7F7FA0"/>
<path d="M49 93C49 93.5522 48.5523 94 48 94C47.4477 94 47 93.5522 47 93C47 92.4478 47.4477 92 48 92C48.5523 92 49 92.4478 49 93Z" fill="#7F7FA0"/>
<path d="M49 138C49 138.552 48.5523 139 48 139C47.4477 139 47 138.552 47 138C47 137.448 47.4477 137 48 137C48.5523 137 49 137.448 49 138Z" fill="#7F7FA0"/>
<path d="M49 18C49 18.5522 48.5523 19 48 19C47.4477 19 47 18.5522 47 18C47 17.4478 47.4477 17 48 17C48.5523 17 49 17.4478 49 18Z" fill="#7F7FA0"/>
<path d="M49 63C49 63.5522 48.5523 64 48 64C47.4477 64 47 63.5522 47 63C47 62.4478 47.4477 62 48 62C48.5523 62 49 62.4478 49 63Z" fill="#7F7FA0"/>
<path d="M49 108C49 108.552 48.5523 109 48 109C47.4477 109 47 108.552 47 108C47 107.448 47.4477 107 48 107C48.5523 107 49 107.448 49 108Z" fill="#7F7FA0"/>
<path d="M49 153C49 153.552 48.5523 154 48 154C47.4477 154 47 153.552 47 153C47 152.448 47.4477 152 48 152C48.5523 152 49 152.448 49 153Z" fill="#7F7FA0"/>
<path d="M49 33C49 33.5522 48.5523 34 48 34C47.4477 34 47 33.5522 47 33C47 32.4478 47.4477 32 48 32C48.5523 32 49 32.4478 49 33Z" fill="#7F7FA0"/>
<path d="M49 78C49 78.5522 48.5523 79 48 79C47.4477 79 47 78.5522 47 78C47 77.4478 47.4477 77 48 77C48.5523 77 49 77.4478 49 78Z" fill="#7F7FA0"/>
<path d="M49 123C49 123.552 48.5523 124 48 124C47.4477 124 47 123.552 47 123C47 122.448 47.4477 122 48 122C48.5523 122 49 122.448 49 123Z" fill="#7F7FA0"/>
<path d="M63 4C63.5523 4 64 3.55225 64 3C64 2.44775 63.5523 2 63 2C62.4477 2 62 2.44775 62 3C62 3.55225 62.4477 4 63 4Z" fill="#7F7FA0"/>
<path d="M63 49C63.5523 49 64 48.5522 64 48C64 47.4478 63.5523 47 63 47C62.4477 47 62 47.4478 62 48C62 48.5522 62.4477 49 63 49Z" fill="#7F7FA0"/>
<path d="M63 94C63.5523 94 64 93.5522 64 93C64 92.4478 63.5523 92 63 92C62.4477 92 62 92.4478 62 93C62 93.5522 62.4477 94 63 94Z" fill="#7F7FA0"/>
<path d="M63 139C63.5523 139 64 138.552 64 138C64 137.448 63.5523 137 63 137C62.4477 137 62 137.448 62 138C62 138.552 62.4477 139 63 139Z" fill="#7F7FA0"/>
<path d="M63 19C63.5523 19 64 18.5522 64 18C64 17.4478 63.5523 17 63 17C62.4477 17 62 17.4478 62 18C62 18.5522 62.4477 19 63 19Z" fill="#7F7FA0"/>
<path d="M63 64C63.5523 64 64 63.5522 64 63C64 62.4478 63.5523 62 63 62C62.4477 62 62 62.4478 62 63C62 63.5522 62.4477 64 63 64Z" fill="#7F7FA0"/>
<path d="M63 109C63.5523 109 64 108.552 64 108C64 107.448 63.5523 107 63 107C62.4477 107 62 107.448 62 108C62 108.552 62.4477 109 63 109Z" fill="#7F7FA0"/>
<path d="M63 154C63.5523 154 64 153.552 64 153C64 152.448 63.5523 152 63 152C62.4477 152 62 152.448 62 153C62 153.552 62.4477 154 63 154Z" fill="#7F7FA0"/>
<path d="M63 34C63.5523 34 64 33.5522 64 33C64 32.4478 63.5523 32 63 32C62.4477 32 62 32.4478 62 33C62 33.5522 62.4477 34 63 34Z" fill="#7F7FA0"/>
<path d="M63 79C63.5523 79 64 78.5522 64 78C64 77.4478 63.5523 77 63 77C62.4477 77 62 77.4478 62 78C62 78.5522 62.4477 79 63 79Z" fill="#7F7FA0"/>
<path d="M63 124C63.5523 124 64 123.552 64 123C64 122.448 63.5523 122 63 122C62.4477 122 62 122.448 62 123C62 123.552 62.4477 124 63 124Z" fill="#7F7FA0"/>
<path d="M79 3C79 3.55225 78.5523 4 78 4C77.4477 4 77 3.55225 77 3C77 2.44775 77.4477 2 78 2C78.5523 2 79 2.44775 79 3Z" fill="#7F7FA0"/>
<path d="M79 48C79 48.5522 78.5523 49 78 49C77.4477 49 77 48.5522 77 48C77 47.4478 77.4477 47 78 47C78.5523 47 79 47.4478 79 48Z" fill="#7F7FA0"/>
<path d="M79 93C79 93.5522 78.5523 94 78 94C77.4477 94 77 93.5522 77 93C77 92.4478 77.4477 92 78 92C78.5523 92 79 92.4478 79 93Z" fill="#7F7FA0"/>
<path d="M79 138C79 138.552 78.5523 139 78 139C77.4477 139 77 138.552 77 138C77 137.448 77.4477 137 78 137C78.5523 137 79 137.448 79 138Z" fill="#7F7FA0"/>
<path d="M79 18C79 18.5522 78.5523 19 78 19C77.4477 19 77 18.5522 77 18C77 17.4478 77.4477 17 78 17C78.5523 17 79 17.4478 79 18Z" fill="#7F7FA0"/>
<path d="M79 63C79 63.5522 78.5523 64 78 64C77.4477 64 77 63.5522 77 63C77 62.4478 77.4477 62 78 62C78.5523 62 79 62.4478 79 63Z" fill="#7F7FA0"/>
<path d="M79 108C79 108.552 78.5523 109 78 109C77.4477 109 77 108.552 77 108C77 107.448 77.4477 107 78 107C78.5523 107 79 107.448 79 108Z" fill="#7F7FA0"/>
<path d="M79 153C79 153.552 78.5523 154 78 154C77.4477 154 77 153.552 77 153C77 152.448 77.4477 152 78 152C78.5523 152 79 152.448 79 153Z" fill="#7F7FA0"/>
<path d="M79 33C79 33.5522 78.5523 34 78 34C77.4477 34 77 33.5522 77 33C77 32.4478 77.4477 32 78 32C78.5523 32 79 32.4478 79 33Z" fill="#7F7FA0"/>
<path d="M79 78C79 78.5522 78.5523 79 78 79C77.4477 79 77 78.5522 77 78C77 77.4478 77.4477 77 78 77C78.5523 77 79 77.4478 79 78Z" fill="#7F7FA0"/>
<path d="M79 123C79 123.552 78.5523 124 78 124C77.4477 124 77 123.552 77 123C77 122.448 77.4477 122 78 122C78.5523 122 79 122.448 79 123Z" fill="#7F7FA0"/>
<path d="M93 4C93.5523 4 94 3.55225 94 3C94 2.44775 93.5523 2 93 2C92.4477 2 92 2.44775 92 3C92 3.55225 92.4477 4 93 4Z" fill="#7F7FA0"/>
<path d="M93 49C93.5523 49 94 48.5522 94 48C94 47.4478 93.5523 47 93 47C92.4477 47 92 47.4478 92 48C92 48.5522 92.4477 49 93 49Z" fill="#7F7FA0"/>
<path d="M93 94C93.5523 94 94 93.5522 94 93C94 92.4478 93.5523 92 93 92C92.4477 92 92 92.4478 92 93C92 93.5522 92.4477 94 93 94Z" fill="#7F7FA0"/>
<path d="M93 139C93.5523 139 94 138.552 94 138C94 137.448 93.5523 137 93 137C92.4477 137 92 137.448 92 138C92 138.552 92.4477 139 93 139Z" fill="#7F7FA0"/>
<path d="M93 19C93.5523 19 94 18.5522 94 18C94 17.4478 93.5523 17 93 17C92.4477 17 92 17.4478 92 18C92 18.5522 92.4477 19 93 19Z" fill="#7F7FA0"/>
<path d="M93 64C93.5523 64 94 63.5522 94 63C94 62.4478 93.5523 62 93 62C92.4477 62 92 62.4478 92 63C92 63.5522 92.4477 64 93 64Z" fill="#7F7FA0"/>
<path d="M93 109C93.5523 109 94 108.552 94 108C94 107.448 93.5523 107 93 107C92.4477 107 92 107.448 92 108C92 108.552 92.4477 109 93 109Z" fill="#7F7FA0"/>
<path d="M93 154C93.5523 154 94 153.552 94 153C94 152.448 93.5523 152 93 152C92.4477 152 92 152.448 92 153C92 153.552 92.4477 154 93 154Z" fill="#7F7FA0"/>
<path d="M93 34C93.5523 34 94 33.5522 94 33C94 32.4478 93.5523 32 93 32C92.4477 32 92 32.4478 92 33C92 33.5522 92.4477 34 93 34Z" fill="#7F7FA0"/>
<path d="M93 79C93.5523 79 94 78.5522 94 78C94 77.4478 93.5523 77 93 77C92.4477 77 92 77.4478 92 78C92 78.5522 92.4477 79 93 79Z" fill="#7F7FA0"/>
<path d="M93 124C93.5523 124 94 123.552 94 123C94 122.448 93.5523 122 93 122C92.4477 122 92 122.448 92 123C92 123.552 92.4477 124 93 124Z" fill="#7F7FA0"/>
<path d="M109 3C109 3.55225 108.552 4 108 4C107.448 4 107 3.55225 107 3C107 2.44775 107.448 2 108 2C108.552 2 109 2.44775 109 3Z" fill="#7F7FA0"/>
<path d="M109 48C109 48.5522 108.552 49 108 49C107.448 49 107 48.5522 107 48C107 47.4478 107.448 47 108 47C108.552 47 109 47.4478 109 48Z" fill="#7F7FA0"/>
<path d="M109 93C109 93.5522 108.552 94 108 94C107.448 94 107 93.5522 107 93C107 92.4478 107.448 92 108 92C108.552 92 109 92.4478 109 93Z" fill="#7F7FA0"/>
<path d="M109 138C109 138.552 108.552 139 108 139C107.448 139 107 138.552 107 138C107 137.448 107.448 137 108 137C108.552 137 109 137.448 109 138Z" fill="#7F7FA0"/>
<path d="M109 18C109 18.5522 108.552 19 108 19C107.448 19 107 18.5522 107 18C107 17.4478 107.448 17 108 17C108.552 17 109 17.4478 109 18Z" fill="#7F7FA0"/>
<path d="M109 63C109 63.5522 108.552 64 108 64C107.448 64 107 63.5522 107 63C107 62.4478 107.448 62 108 62C108.552 62 109 62.4478 109 63Z" fill="#7F7FA0"/>
<path d="M109 108C109 108.552 108.552 109 108 109C107.448 109 107 108.552 107 108C107 107.448 107.448 107 108 107C108.552 107 109 107.448 109 108Z" fill="#7F7FA0"/>
<path d="M109 153C109 153.552 108.552 154 108 154C107.448 154 107 153.552 107 153C107 152.448 107.448 152 108 152C108.552 152 109 152.448 109 153Z" fill="#7F7FA0"/>
<path d="M109 33C109 33.5522 108.552 34 108 34C107.448 34 107 33.5522 107 33C107 32.4478 107.448 32 108 32C108.552 32 109 32.4478 109 33Z" fill="#7F7FA0"/>
<path d="M109 78C109 78.5522 108.552 79 108 79C107.448 79 107 78.5522 107 78C107 77.4478 107.448 77 108 77C108.552 77 109 77.4478 109 78Z" fill="#7F7FA0"/>
<path d="M109 123C109 123.552 108.552 124 108 124C107.448 124 107 123.552 107 123C107 122.448 107.448 122 108 122C108.552 122 109 122.448 109 123Z" fill="#7F7FA0"/>
<path d="M123 4C123.552 4 124 3.55225 124 3C124 2.44775 123.552 2 123 2C122.448 2 122 2.44775 122 3C122 3.55225 122.448 4 123 4Z" fill="#7F7FA0"/>
<path d="M123 49C123.552 49 124 48.5522 124 48C124 47.4478 123.552 47 123 47C122.448 47 122 47.4478 122 48C122 48.5522 122.448 49 123 49Z" fill="#7F7FA0"/>
<path d="M123 94C123.552 94 124 93.5522 124 93C124 92.4478 123.552 92 123 92C122.448 92 122 92.4478 122 93C122 93.5522 122.448 94 123 94Z" fill="#7F7FA0"/>
<path d="M123 139C123.552 139 124 138.552 124 138C124 137.448 123.552 137 123 137C122.448 137 122 137.448 122 138C122 138.552 122.448 139 123 139Z" fill="#7F7FA0"/>
<path d="M123 19C123.552 19 124 18.5522 124 18C124 17.4478 123.552 17 123 17C122.448 17 122 17.4478 122 18C122 18.5522 122.448 19 123 19Z" fill="#7F7FA0"/>
<path d="M123 64C123.552 64 124 63.5522 124 63C124 62.4478 123.552 62 123 62C122.448 62 122 62.4478 122 63C122 63.5522 122.448 64 123 64Z" fill="#7F7FA0"/>
<path d="M123 109C123.552 109 124 108.552 124 108C124 107.448 123.552 107 123 107C122.448 107 122 107.448 122 108C122 108.552 122.448 109 123 109Z" fill="#7F7FA0"/>
<path d="M123 154C123.552 154 124 153.552 124 153C124 152.448 123.552 152 123 152C122.448 152 122 152.448 122 153C122 153.552 122.448 154 123 154Z" fill="#7F7FA0"/>
<path d="M123 34C123.552 34 124 33.5522 124 33C124 32.4478 123.552 32 123 32C122.448 32 122 32.4478 122 33C122 33.5522 122.448 34 123 34Z" fill="#7F7FA0"/>
<path d="M123 79C123.552 79 124 78.5522 124 78C124 77.4478 123.552 77 123 77C122.448 77 122 77.4478 122 78C122 78.5522 122.448 79 123 79Z" fill="#7F7FA0"/>
<path d="M123 124C123.552 124 124 123.552 124 123C124 122.448 123.552 122 123 122C122.448 122 122 122.448 122 123C122 123.552 122.448 124 123 124Z" fill="#7F7FA0"/>
<path d="M139 3C139 3.55225 138.552 4 138 4C137.448 4 137 3.55225 137 3C137 2.44775 137.448 2 138 2C138.552 2 139 2.44775 139 3Z" fill="#7F7FA0"/>
<path d="M139 48C139 48.5522 138.552 49 138 49C137.448 49 137 48.5522 137 48C137 47.4478 137.448 47 138 47C138.552 47 139 47.4478 139 48Z" fill="#7F7FA0"/>
<path d="M139 93C139 93.5522 138.552 94 138 94C137.448 94 137 93.5522 137 93C137 92.4478 137.448 92 138 92C138.552 92 139 92.4478 139 93Z" fill="#7F7FA0"/>
<path d="M139 138C139 138.552 138.552 139 138 139C137.448 139 137 138.552 137 138C137 137.448 137.448 137 138 137C138.552 137 139 137.448 139 138Z" fill="#7F7FA0"/>
<path d="M139 18C139 18.5522 138.552 19 138 19C137.448 19 137 18.5522 137 18C137 17.4478 137.448 17 138 17C138.552 17 139 17.4478 139 18Z" fill="#7F7FA0"/>
<path d="M139 63C139 63.5522 138.552 64 138 64C137.448 64 137 63.5522 137 63C137 62.4478 137.448 62 138 62C138.552 62 139 62.4478 139 63Z" fill="#7F7FA0"/>
<path d="M139 108C139 108.552 138.552 109 138 109C137.448 109 137 108.552 137 108C137 107.448 137.448 107 138 107C138.552 107 139 107.448 139 108Z" fill="#7F7FA0"/>
<path d="M139 153C139 153.552 138.552 154 138 154C137.448 154 137 153.552 137 153C137 152.448 137.448 152 138 152C138.552 152 139 152.448 139 153Z" fill="#7F7FA0"/>
<path d="M139 33C139 33.5522 138.552 34 138 34C137.448 34 137 33.5522 137 33C137 32.4478 137.448 32 138 32C138.552 32 139 32.4478 139 33Z" fill="#7F7FA0"/>
<path d="M139 78C139 78.5522 138.552 79 138 79C137.448 79 137 78.5522 137 78C137 77.4478 137.448 77 138 77C138.552 77 139 77.4478 139 78Z" fill="#7F7FA0"/>
<path d="M139 123C139 123.552 138.552 124 138 124C137.448 124 137 123.552 137 123C137 122.448 137.448 122 138 122C138.552 122 139 122.448 139 123Z" fill="#7F7FA0"/>
</g>
<g filter="url(#filter1_f_55_2)">
<path d="M1183 124C1183 124.552 1182.55 125 1182 125C1181.45 125 1181 124.552 1181 124C1181 123.448 1181.45 123 1182 123C1182.55 123 1183 123.448 1183 124Z" fill="#7F7FA0"/>
<path d="M1183 169C1183 169.552 1182.55 170 1182 170C1181.45 170 1181 169.552 1181 169C1181 168.448 1181.45 168 1182 168C1182.55 168 1183 168.448 1183 169Z" fill="#7F7FA0"/>
<path d="M1183 214C1183 214.552 1182.55 215 1182 215C1181.45 215 1181 214.552 1181 214C1181 213.448 1181.45 213 1182 213C1182.55 213 1183 213.448 1183 214Z" fill="#7F7FA0"/>
<path d="M1183 259C1183 259.552 1182.55 260 1182 260C1181.45 260 1181 259.552 1181 259C1181 258.448 1181.45 258 1182 258C1182.55 258 1183 258.448 1183 259Z" fill="#7F7FA0"/>
<path d="M1183 139C1183 139.552 1182.55 140 1182 140C1181.45 140 1181 139.552 1181 139C1181 138.448 1181.45 138 1182 138C1182.55 138 1183 138.448 1183 139Z" fill="#7F7FA0"/>
<path d="M1183 184C1183 184.552 1182.55 185 1182 185C1181.45 185 1181 184.552 1181 184C1181 183.448 1181.45 183 1182 183C1182.55 183 1183 183.448 1183 184Z" fill="#7F7FA0"/>
<path d="M1183 229C1183 229.552 1182.55 230 1182 230C1181.45 230 1181 229.552 1181 229C1181 228.448 1181.45 228 1182 228C1182.55 228 1183 228.448 1183 229Z" fill="#7F7FA0"/>
<path d="M1183 274C1183 274.552 1182.55 275 1182 275C1181.45 275 1181 274.552 1181 274C1181 273.448 1181.45 273 1182 273C1182.55 273 1183 273.448 1183 274Z" fill="#7F7FA0"/>
<path d="M1183 154C1183 154.552 1182.55 155 1182 155C1181.45 155 1181 154.552 1181 154C1181 153.448 1181.45 153 1182 153C1182.55 153 1183 153.448 1183 154Z" fill="#7F7FA0"/>
<path d="M1183 199C1183 199.552 1182.55 200 1182 200C1181.45 200 1181 199.552 1181 199C1181 198.448 1181.45 198 1182 198C1182.55 198 1183 198.448 1183 199Z" fill="#7F7FA0"/>
<path d="M1183 244C1183 244.552 1182.55 245 1182 245C1181.45 245 1181 244.552 1181 244C1181 243.448 1181.45 243 1182 243C1182.55 243 1183 243.448 1183 244Z" fill="#7F7FA0"/>
<path d="M1198 124C1198 124.552 1197.55 125 1197 125C1196.45 125 1196 124.552 1196 124C1196 123.448 1196.45 123 1197 123C1197.55 123 1198 123.448 1198 124Z" fill="#7F7FA0"/>
<path d="M1198 169C1198 169.552 1197.55 170 1197 170C1196.45 170 1196 169.552 1196 169C1196 168.448 1196.45 168 1197 168C1197.55 168 1198 168.448 1198 169Z" fill="#7F7FA0"/>
<path d="M1198 214C1198 214.552 1197.55 215 1197 215C1196.45 215 1196 214.552 1196 214C1196 213.448 1196.45 213 1197 213C1197.55 213 1198 213.448 1198 214Z" fill="#7F7FA0"/>
<path d="M1198 259C1198 259.552 1197.55 260 1197 260C1196.45 260 1196 259.552 1196 259C1196 258.448 1196.45 258 1197 258C1197.55 258 1198 258.448 1198 259Z" fill="#7F7FA0"/>
<path d="M1198 139C1198 139.552 1197.55 140 1197 140C1196.45 140 1196 139.552 1196 139C1196 138.448 1196.45 138 1197 138C1197.55 138 1198 138.448 1198 139Z" fill="#7F7FA0"/>
<path d="M1198 184C1198 184.552 1197.55 185 1197 185C1196.45 185 1196 184.552 1196 184C1196 183.448 1196.45 183 1197 183C1197.55 183 1198 183.448 1198 184Z" fill="#7F7FA0"/>
<path d="M1198 229C1198 229.552 1197.55 230 1197 230C1196.45 230 1196 229.552 1196 229C1196 228.448 1196.45 228 1197 228C1197.55 228 1198 228.448 1198 229Z" fill="#7F7FA0"/>
<path d="M1198 274C1198 274.552 1197.55 275 1197 275C1196.45 275 1196 274.552 1196 274C1196 273.448 1196.45 273 1197 273C1197.55 273 1198 273.448 1198 274Z" fill="#7F7FA0"/>
<path d="M1198 154C1198 154.552 1197.55 155 1197 155C1196.45 155 1196 154.552 1196 154C1196 153.448 1196.45 153 1197 153C1197.55 153 1198 153.448 1198 154Z" fill="#7F7FA0"/>
<path d="M1198 199C1198 199.552 1197.55 200 1197 200C1196.45 200 1196 199.552 1196 199C1196 198.448 1196.45 198 1197 198C1197.55 198 1198 198.448 1198 199Z" fill="#7F7FA0"/>
<path d="M1198 244C1198 244.552 1197.55 245 1197 245C1196.45 245 1196 244.552 1196 244C1196 243.448 1196.45 243 1197 243C1197.55 243 1198 243.448 1198 244Z" fill="#7F7FA0"/>
<path d="M1212 125C1212.55 125 1213 124.552 1213 124C1213 123.448 1212.55 123 1212 123C1211.45 123 1211 123.448 1211 124C1211 124.552 1211.45 125 1212 125Z" fill="#7F7FA0"/>
<path d="M1212 170C1212.55 170 1213 169.552 1213 169C1213 168.448 1212.55 168 1212 168C1211.45 168 1211 168.448 1211 169C1211 169.552 1211.45 170 1212 170Z" fill="#7F7FA0"/>
<path d="M1212 215C1212.55 215 1213 214.552 1213 214C1213 213.448 1212.55 213 1212 213C1211.45 213 1211 213.448 1211 214C1211 214.552 1211.45 215 1212 215Z" fill="#7F7FA0"/>
<path d="M1212 260C1212.55 260 1213 259.552 1213 259C1213 258.448 1212.55 258 1212 258C1211.45 258 1211 258.448 1211 259C1211 259.552 1211.45 260 1212 260Z" fill="#7F7FA0"/>
<path d="M1212 140C1212.55 140 1213 139.552 1213 139C1213 138.448 1212.55 138 1212 138C1211.45 138 1211 138.448 1211 139C1211 139.552 1211.45 140 1212 140Z" fill="#7F7FA0"/>
<path d="M1212 185C1212.55 185 1213 184.552 1213 184C1213 183.448 1212.55 183 1212 183C1211.45 183 1211 183.448 1211 184C1211 184.552 1211.45 185 1212 185Z" fill="#7F7FA0"/>
<path d="M1212 230C1212.55 230 1213 229.552 1213 229C1213 228.448 1212.55 228 1212 228C1211.45 228 1211 228.448 1211 229C1211 229.552 1211.45 230 1212 230Z" fill="#7F7FA0"/>
<path d="M1212 275C1212.55 275 1213 274.552 1213 274C1213 273.448 1212.55 273 1212 273C1211.45 273 1211 273.448 1211 274C1211 274.552 1211.45 275 1212 275Z" fill="#7F7FA0"/>
<path d="M1212 155C1212.55 155 1213 154.552 1213 154C1213 153.448 1212.55 153 1212 153C1211.45 153 1211 153.448 1211 154C1211 154.552 1211.45 155 1212 155Z" fill="#7F7FA0"/>
<path d="M1212 200C1212.55 200 1213 199.552 1213 199C1213 198.448 1212.55 198 1212 198C1211.45 198 1211 198.448 1211 199C1211 199.552 1211.45 200 1212 200Z" fill="#7F7FA0"/>
<path d="M1212 245C1212.55 245 1213 244.552 1213 244C1213 243.448 1212.55 243 1212 243C1211.45 243 1211 243.448 1211 244C1211 244.552 1211.45 245 1212 245Z" fill="#7F7FA0"/>
<path d="M1228 124C1228 124.552 1227.55 125 1227 125C1226.45 125 1226 124.552 1226 124C1226 123.448 1226.45 123 1227 123C1227.55 123 1228 123.448 1228 124Z" fill="#7F7FA0"/>
<path d="M1228 169C1228 169.552 1227.55 170 1227 170C1226.45 170 1226 169.552 1226 169C1226 168.448 1226.45 168 1227 168C1227.55 168 1228 168.448 1228 169Z" fill="#7F7FA0"/>
<path d="M1228 214C1228 214.552 1227.55 215 1227 215C1226.45 215 1226 214.552 1226 214C1226 213.448 1226.45 213 1227 213C1227.55 213 1228 213.448 1228 214Z" fill="#7F7FA0"/>
<path d="M1228 259C1228 259.552 1227.55 260 1227 260C1226.45 260 1226 259.552 1226 259C1226 258.448 1226.45 258 1227 258C1227.55 258 1228 258.448 1228 259Z" fill="#7F7FA0"/>
<path d="M1228 139C1228 139.552 1227.55 140 1227 140C1226.45 140 1226 139.552 1226 139C1226 138.448 1226.45 138 1227 138C1227.55 138 1228 138.448 1228 139Z" fill="#7F7FA0"/>
<path d="M1228 184C1228 184.552 1227.55 185 1227 185C1226.45 185 1226 184.552 1226 184C1226 183.448 1226.45 183 1227 183C1227.55 183 1228 183.448 1228 184Z" fill="#7F7FA0"/>
<path d="M1228 229C1228 229.552 1227.55 230 1227 230C1226.45 230 1226 229.552 1226 229C1226 228.448 1226.45 228 1227 228C1227.55 228 1228 228.448 1228 229Z" fill="#7F7FA0"/>
<path d="M1228 274C1228 274.552 1227.55 275 1227 275C1226.45 275 1226 274.552 1226 274C1226 273.448 1226.45 273 1227 273C1227.55 273 1228 273.448 1228 274Z" fill="#7F7FA0"/>
<path d="M1228 154C1228 154.552 1227.55 155 1227 155C1226.45 155 1226 154.552 1226 154C1226 153.448 1226.45 153 1227 153C1227.55 153 1228 153.448 1228 154Z" fill="#7F7FA0"/>
<path d="M1228 199C1228 199.552 1227.55 200 1227 200C1226.45 200 1226 199.552 1226 199C1226 198.448 1226.45 198 1227 198C1227.55 198 1228 198.448 1228 199Z" fill="#7F7FA0"/>
<path d="M1228 244C1228 244.552 1227.55 245 1227 245C1226.45 245 1226 244.552 1226 244C1226 243.448 1226.45 243 1227 243C1227.55 243 1228 243.448 1228 244Z" fill="#7F7FA0"/>
<path d="M1242 125C1242.55 125 1243 124.552 1243 124C1243 123.448 1242.55 123 1242 123C1241.45 123 1241 123.448 1241 124C1241 124.552 1241.45 125 1242 125Z" fill="#7F7FA0"/>
<path d="M1242 170C1242.55 170 1243 169.552 1243 169C1243 168.448 1242.55 168 1242 168C1241.45 168 1241 168.448 1241 169C1241 169.552 1241.45 170 1242 170Z" fill="#7F7FA0"/>
<path d="M1242 215C1242.55 215 1243 214.552 1243 214C1243 213.448 1242.55 213 1242 213C1241.45 213 1241 213.448 1241 214C1241 214.552 1241.45 215 1242 215Z" fill="#7F7FA0"/>
<path d="M1242 260C1242.55 260 1243 259.552 1243 259C1243 258.448 1242.55 258 1242 258C1241.45 258 1241 258.448 1241 259C1241 259.552 1241.45 260 1242 260Z" fill="#7F7FA0"/>
<path d="M1242 140C1242.55 140 1243 139.552 1243 139C1243 138.448 1242.55 138 1242 138C1241.45 138 1241 138.448 1241 139C1241 139.552 1241.45 140 1242 140Z" fill="#7F7FA0"/>
<path d="M1242 185C1242.55 185 1243 184.552 1243 184C1243 183.448 1242.55 183 1242 183C1241.45 183 1241 183.448 1241 184C1241 184.552 1241.45 185 1242 185Z" fill="#7F7FA0"/>
<path d="M1242 230C1242.55 230 1243 229.552 1243 229C1243 228.448 1242.55 228 1242 228C1241.45 228 1241 228.448 1241 229C1241 229.552 1241.45 230 1242 230Z" fill="#7F7FA0"/>
<path d="M1242 275C1242.55 275 1243 274.552 1243 274C1243 273.448 1242.55 273 1242 273C1241.45 273 1241 273.448 1241 274C1241 274.552 1241.45 275 1242 275Z" fill="#7F7FA0"/>
<path d="M1242 155C1242.55 155 1243 154.552 1243 154C1243 153.448 1242.55 153 1242 153C1241.45 153 1241 153.448 1241 154C1241 154.552 1241.45 155 1242 155Z" fill="#7F7FA0"/>
<path d="M1242 200C1242.55 200 1243 199.552 1243 199C1243 198.448 1242.55 198 1242 198C1241.45 198 1241 198.448 1241 199C1241 199.552 1241.45 200 1242 200Z" fill="#7F7FA0"/>
<path d="M1242 245C1242.55 245 1243 244.552 1243 244C1243 243.448 1242.55 243 1242 243C1241.45 243 1241 243.448 1241 244C1241 244.552 1241.45 245 1242 245Z" fill="#7F7FA0"/>
<path d="M1258 124C1258 124.552 1257.55 125 1257 125C1256.45 125 1256 124.552 1256 124C1256 123.448 1256.45 123 1257 123C1257.55 123 1258 123.448 1258 124Z" fill="#7F7FA0"/>
<path d="M1258 169C1258 169.552 1257.55 170 1257 170C1256.45 170 1256 169.552 1256 169C1256 168.448 1256.45 168 1257 168C1257.55 168 1258 168.448 1258 169Z" fill="#7F7FA0"/>
<path d="M1258 214C1258 214.552 1257.55 215 1257 215C1256.45 215 1256 214.552 1256 214C1256 213.448 1256.45 213 1257 213C1257.55 213 1258 213.448 1258 214Z" fill="#7F7FA0"/>
<path d="M1258 259C1258 259.552 1257.55 260 1257 260C1256.45 260 1256 259.552 1256 259C1256 258.448 1256.45 258 1257 258C1257.55 258 1258 258.448 1258 259Z" fill="#7F7FA0"/>
<path d="M1258 139C1258 139.552 1257.55 140 1257 140C1256.45 140 1256 139.552 1256 139C1256 138.448 1256.45 138 1257 138C1257.55 138 1258 138.448 1258 139Z" fill="#7F7FA0"/>
<path d="M1258 184C1258 184.552 1257.55 185 1257 185C1256.45 185 1256 184.552 1256 184C1256 183.448 1256.45 183 1257 183C1257.55 183 1258 183.448 1258 184Z" fill="#7F7FA0"/>
<path d="M1258 229C1258 229.552 1257.55 230 1257 230C1256.45 230 1256 229.552 1256 229C1256 228.448 1256.45 228 1257 228C1257.55 228 1258 228.448 1258 229Z" fill="#7F7FA0"/>
<path d="M1258 274C1258 274.552 1257.55 275 1257 275C1256.45 275 1256 274.552 1256 274C1256 273.448 1256.45 273 1257 273C1257.55 273 1258 273.448 1258 274Z" fill="#7F7FA0"/>
<path d="M1258 154C1258 154.552 1257.55 155 1257 155C1256.45 155 1256 154.552 1256 154C1256 153.448 1256.45 153 1257 153C1257.55 153 1258 153.448 1258 154Z" fill="#7F7FA0"/>
<path d="M1258 199C1258 199.552 1257.55 200 1257 200C1256.45 200 1256 199.552 1256 199C1256 198.448 1256.45 198 1257 198C1257.55 198 1258 198.448 1258 199Z" fill="#7F7FA0"/>
<path d="M1258 244C1258 244.552 1257.55 245 1257 245C1256.45 245 1256 244.552 1256 244C1256 243.448 1256.45 243 1257 243C1257.55 243 1258 243.448 1258 244Z" fill="#7F7FA0"/>
<path d="M1272 125C1272.55 125 1273 124.552 1273 124C1273 123.448 1272.55 123 1272 123C1271.45 123 1271 123.448 1271 124C1271 124.552 1271.45 125 1272 125Z" fill="#7F7FA0"/>
<path d="M1272 170C1272.55 170 1273 169.552 1273 169C1273 168.448 1272.55 168 1272 168C1271.45 168 1271 168.448 1271 169C1271 169.552 1271.45 170 1272 170Z" fill="#7F7FA0"/>
<path d="M1272 215C1272.55 215 1273 214.552 1273 214C1273 213.448 1272.55 213 1272 213C1271.45 213 1271 213.448 1271 214C1271 214.552 1271.45 215 1272 215Z" fill="#7F7FA0"/>
<path d="M1272 260C1272.55 260 1273 259.552 1273 259C1273 258.448 1272.55 258 1272 258C1271.45 258 1271 258.448 1271 259C1271 259.552 1271.45 260 1272 260Z" fill="#7F7FA0"/>
<path d="M1272 140C1272.55 140 1273 139.552 1273 139C1273 138.448 1272.55 138 1272 138C1271.45 138 1271 138.448 1271 139C1271 139.552 1271.45 140 1272 140Z" fill="#7F7FA0"/>
<path d="M1272 185C1272.55 185 1273 184.552 1273 184C1273 183.448 1272.55 183 1272 183C1271.45 183 1271 183.448 1271 184C1271 184.552 1271.45 185 1272 185Z" fill="#7F7FA0"/>
<path d="M1272 230C1272.55 230 1273 229.552 1273 229C1273 228.448 1272.55 228 1272 228C1271.45 228 1271 228.448 1271 229C1271 229.552 1271.45 230 1272 230Z" fill="#7F7FA0"/>
<path d="M1272 275C1272.55 275 1273 274.552 1273 274C1273 273.448 1272.55 273 1272 273C1271.45 273 1271 273.448 1271 274C1271 274.552 1271.45 275 1272 275Z" fill="#7F7FA0"/>
<path d="M1272 155C1272.55 155 1273 154.552 1273 154C1273 153.448 1272.55 153 1272 153C1271.45 153 1271 153.448 1271 154C1271 154.552 1271.45 155 1272 155Z" fill="#7F7FA0"/>
<path d="M1272 200C1272.55 200 1273 199.552 1273 199C1273 198.448 1272.55 198 1272 198C1271.45 198 1271 198.448 1271 199C1271 199.552 1271.45 200 1272 200Z" fill="#7F7FA0"/>
<path d="M1272 245C1272.55 245 1273 244.552 1273 244C1273 243.448 1272.55 243 1272 243C1271.45 243 1271 243.448 1271 244C1271 244.552 1271.45 245 1272 245Z" fill="#7F7FA0"/>
<path d="M1288 124C1288 124.552 1287.55 125 1287 125C1286.45 125 1286 124.552 1286 124C1286 123.448 1286.45 123 1287 123C1287.55 123 1288 123.448 1288 124Z" fill="#7F7FA0"/>
<path d="M1288 169C1288 169.552 1287.55 170 1287 170C1286.45 170 1286 169.552 1286 169C1286 168.448 1286.45 168 1287 168C1287.55 168 1288 168.448 1288 169Z" fill="#7F7FA0"/>
<path d="M1288 214C1288 214.552 1287.55 215 1287 215C1286.45 215 1286 214.552 1286 214C1286 213.448 1286.45 213 1287 213C1287.55 213 1288 213.448 1288 214Z" fill="#7F7FA0"/>
<path d="M1288 259C1288 259.552 1287.55 260 1287 260C1286.45 260 1286 259.552 1286 259C1286 258.448 1286.45 258 1287 258C1287.55 258 1288 258.448 1288 259Z" fill="#7F7FA0"/>
<path d="M1288 139C1288 139.552 1287.55 140 1287 140C1286.45 140 1286 139.552 1286 139C1286 138.448 1286.45 138 1287 138C1287.55 138 1288 138.448 1288 139Z" fill="#7F7FA0"/>
<path d="M1288 184C1288 184.552 1287.55 185 1287 185C1286.45 185 1286 184.552 1286 184C1286 183.448 1286.45 183 1287 183C1287.55 183 1288 183.448 1288 184Z" fill="#7F7FA0"/>
<path d="M1288 229C1288 229.552 1287.55 230 1287 230C1286.45 230 1286 229.552 1286 229C1286 228.448 1286.45 228 1287 228C1287.55 228 1288 228.448 1288 229Z" fill="#7F7FA0"/>
<path d="M1288 274C1288 274.552 1287.55 275 1287 275C1286.45 275 1286 274.552 1286 274C1286 273.448 1286.45 273 1287 273C1287.55 273 1288 273.448 1288 274Z" fill="#7F7FA0"/>
<path d="M1288 154C1288 154.552 1287.55 155 1287 155C1286.45 155 1286 154.552 1286 154C1286 153.448 1286.45 153 1287 153C1287.55 153 1288 153.448 1288 154Z" fill="#7F7FA0"/>
<path d="M1288 199C1288 199.552 1287.55 200 1287 200C1286.45 200 1286 199.552 1286 199C1286 198.448 1286.45 198 1287 198C1287.55 198 1288 198.448 1288 199Z" fill="#7F7FA0"/>
<path d="M1288 244C1288 244.552 1287.55 245 1287 245C1286.45 245 1286 244.552 1286 244C1286 243.448 1286.45 243 1287 243C1287.55 243 1288 243.448 1288 244Z" fill="#7F7FA0"/>
<path d="M1302 125C1302.55 125 1303 124.552 1303 124C1303 123.448 1302.55 123 1302 123C1301.45 123 1301 123.448 1301 124C1301 124.552 1301.45 125 1302 125Z" fill="#7F7FA0"/>
<path d="M1302 170C1302.55 170 1303 169.552 1303 169C1303 168.448 1302.55 168 1302 168C1301.45 168 1301 168.448 1301 169C1301 169.552 1301.45 170 1302 170Z" fill="#7F7FA0"/>
<path d="M1302 215C1302.55 215 1303 214.552 1303 214C1303 213.448 1302.55 213 1302 213C1301.45 213 1301 213.448 1301 214C1301 214.552 1301.45 215 1302 215Z" fill="#7F7FA0"/>
<path d="M1302 260C1302.55 260 1303 259.552 1303 259C1303 258.448 1302.55 258 1302 258C1301.45 258 1301 258.448 1301 259C1301 259.552 1301.45 260 1302 260Z" fill="#7F7FA0"/>
<path d="M1302 140C1302.55 140 1303 139.552 1303 139C1303 138.448 1302.55 138 1302 138C1301.45 138 1301 138.448 1301 139C1301 139.552 1301.45 140 1302 140Z" fill="#7F7FA0"/>
<path d="M1302 185C1302.55 185 1303 184.552 1303 184C1303 183.448 1302.55 183 1302 183C1301.45 183 1301 183.448 1301 184C1301 184.552 1301.45 185 1302 185Z" fill="#7F7FA0"/>
<path d="M1302 230C1302.55 230 1303 229.552 1303 229C1303 228.448 1302.55 228 1302 228C1301.45 228 1301 228.448 1301 229C1301 229.552 1301.45 230 1302 230Z" fill="#7F7FA0"/>
<path d="M1302 275C1302.55 275 1303 274.552 1303 274C1303 273.448 1302.55 273 1302 273C1301.45 273 1301 273.448 1301 274C1301 274.552 1301.45 275 1302 275Z" fill="#7F7FA0"/>
<path d="M1302 155C1302.55 155 1303 154.552 1303 154C1303 153.448 1302.55 153 1302 153C1301.45 153 1301 153.448 1301 154C1301 154.552 1301.45 155 1302 155Z" fill="#7F7FA0"/>
<path d="M1302 200C1302.55 200 1303 199.552 1303 199C1303 198.448 1302.55 198 1302 198C1301.45 198 1301 198.448 1301 199C1301 199.552 1301.45 200 1302 200Z" fill="#7F7FA0"/>
<path d="M1302 245C1302.55 245 1303 244.552 1303 244C1303 243.448 1302.55 243 1302 243C1301.45 243 1301 243.448 1301 244C1301 244.552 1301.45 245 1302 245Z" fill="#7F7FA0"/>
<path d="M1318 124C1318 124.552 1317.55 125 1317 125C1316.45 125 1316 124.552 1316 124C1316 123.448 1316.45 123 1317 123C1317.55 123 1318 123.448 1318 124Z" fill="#7F7FA0"/>
<path d="M1318 169C1318 169.552 1317.55 170 1317 170C1316.45 170 1316 169.552 1316 169C1316 168.448 1316.45 168 1317 168C1317.55 168 1318 168.448 1318 169Z" fill="#7F7FA0"/>
<path d="M1318 214C1318 214.552 1317.55 215 1317 215C1316.45 215 1316 214.552 1316 214C1316 213.448 1316.45 213 1317 213C1317.55 213 1318 213.448 1318 214Z" fill="#7F7FA0"/>
<path d="M1318 259C1318 259.552 1317.55 260 1317 260C1316.45 260 1316 259.552 1316 259C1316 258.448 1316.45 258 1317 258C1317.55 258 1318 258.448 1318 259Z" fill="#7F7FA0"/>
<path d="M1318 139C1318 139.552 1317.55 140 1317 140C1316.45 140 1316 139.552 1316 139C1316 138.448 1316.45 138 1317 138C1317.55 138 1318 138.448 1318 139Z" fill="#7F7FA0"/>
<path d="M1318 184C1318 184.552 1317.55 185 1317 185C1316.45 185 1316 184.552 1316 184C1316 183.448 1316.45 183 1317 183C1317.55 183 1318 183.448 1318 184Z" fill="#7F7FA0"/>
<path d="M1318 229C1318 229.552 1317.55 230 1317 230C1316.45 230 1316 229.552 1316 229C1316 228.448 1316.45 228 1317 228C1317.55 228 1318 228.448 1318 229Z" fill="#7F7FA0"/>
<path d="M1318 274C1318 274.552 1317.55 275 1317 275C1316.45 275 1316 274.552 1316 274C1316 273.448 1316.45 273 1317 273C1317.55 273 1318 273.448 1318 274Z" fill="#7F7FA0"/>
<path d="M1318 154C1318 154.552 1317.55 155 1317 155C1316.45 155 1316 154.552 1316 154C1316 153.448 1316.45 153 1317 153C1317.55 153 1318 153.448 1318 154Z" fill="#7F7FA0"/>
<path d="M1318 199C1318 199.552 1317.55 200 1317 200C1316.45 200 1316 199.552 1316 199C1316 198.448 1316.45 198 1317 198C1317.55 198 1318 198.448 1318 199Z" fill="#7F7FA0"/>
<path d="M1318 244C1318 244.552 1317.55 245 1317 245C1316.45 245 1316 244.552 1316 244C1316 243.448 1316.45 243 1317 243C1317.55 243 1318 243.448 1318 244Z" fill="#7F7FA0"/>
</g>
<defs>
<filter id="filter0_f_55_2" x="0" y="0" width="141" height="156" filterUnits="userSpaceOnUse" color-interpolation-filters="sRGB">
<feFlood flood-opacity="0" result="BackgroundImageFix"/>
<feBlend mode="normal" in="SourceGraphic" in2="BackgroundImageFix" result="shape"/>
<feGaussianBlur stdDeviation="1" result="effect1_foregroundBlur_55_2"/>
</filter>
<filter id="filter1_f_55_2" x="1179" y="121" width="141" height="156" filterUnits="userSpaceOnUse" color-interpolation-filters="sRGB">
<feFlood flood-opacity="0" result="BackgroundImageFix"/>
<feBlend mode="normal" in="SourceGraphic" in2="BackgroundImageFix" result="shape"/>
<feGaussianBlur stdDeviation="1" result="effect1_foregroundBlur_55_2"/>
</filter>
</defs>
</svg>
